<svg xmlns="http://www.w3.org/2000/svg" xmlns:svg="http://www.w3.org/2000/svg" id="svg2" width="100%" height="100%" version="1.1" viewBox="0 0 19.469 19.469"><metadata id="metadata90"/><g id="layer4" style="display:inline"><path style="stroke-width:.19956166;stroke-linecap:square;stroke-linejoin:miter;stroke-miterlimit:4;stroke-opacity:1;stroke-dasharray:none;display:inline" id="path3303" fill="param(fill)" fill-opacity=".5" stroke="none" d="m 3.69375,3.69375 2.28125,4 1.34375,-0.375 0.34375,-1.3125 -3.96875,-2.3125 z"/><path style="stroke-width:.19956166;stroke-linecap:square;stroke-linejoin:miter;stroke-miterlimit:4;stroke-opacity:1;stroke-dasharray:none;display:inline" id="path3301" fill="param(fill)" fill-opacity=".5" stroke="none" d="m 15.775,3.69375 -4,2.28125 0.375,1.34375 1.34375,0.375 2.28125,-4 z"/><path style="stroke-width:.19956166;stroke-linecap:square;stroke-linejoin:miter;stroke-miterlimit:4;stroke-opacity:1;stroke-dasharray:none;display:inline" id="path3299" fill="param(fill)" fill-opacity=".5" stroke="none" d="M 6.00625,11.80625 3.69375,15.775 7.6625,13.4625 7.31875,12.15 6.00625,11.80625 z"/><path style="stroke-width:.19956166;stroke-linecap:square;stroke-linejoin:miter;stroke-miterlimit:4;stroke-opacity:1;stroke-dasharray:none;display:inline" id="path3137-4-9" fill="param(fill)" fill-opacity=".5" stroke="none" d="M 13.4625,11.80625 12.15,12.15 l -0.375,1.34375 4,2.28125 -2.3125,-3.96875 z"/></g><g id="layer3" style="display:inline"><path style="font-size:medium;font-style:normal;font-variant:normal;font-weight:400;font-stretch:normal;text-indent:0;text-align:start;text-decoration:none;line-height:normal;letter-spacing:normal;word-spacing:normal;text-transform:none;direction:ltr;block-progression:tb;writing-mode:lr-tb;text-anchor:start;baseline-shift:baseline;stroke-width:.2375;marker:none;visibility:visible;display:inline;overflow:visible;enable-background:accumulate;font-family:Sans;-inkscape-font-specification:Sans" id="path3049" fill="param(fill)" fill-opacity="255" stroke="param(outline)" stroke-opacity="255" d="m 9.7375,0.11875 c -5.3108819,0 -9.61875,4.3078672 -9.61875,9.6187503 0,5.3108817 4.3078681,9.6187497 9.61875,9.6187497 5.310882,0 9.61875,-4.307868 9.61875,-9.6187497 0,-5.3108831 -4.307868,-9.6187503 -9.61875,-9.6187503 z m 0,19 c -5.1825274,0 -9.38125,-4.198723 -9.38125,-9.3812497 0,-5.1825286 4.1987226,-9.3812503 9.38125,-9.3812503 5.182527,0 9.38125,4.1987217 9.38125,9.3812503 0,5.1825267 -4.198723,9.3812497 -9.38125,9.3812497"/><path id="path3137" fill="param(fill) #000" fill-opacity="255" stroke="param(fill) #000" stroke-opacity="255" d="M 40,26.620001 32.12132,28.741321 30,36.620001 27.87868,28.741321 20,26.620001 27.87868,24.498681 30,16.620001 32.12132,24.49868 z" transform="matrix(0.9076178,0,0,0.90807237,-17.497969,-14.436479)"/></g></svg>