<svg xmlns="http://www.w3.org/2000/svg" xmlns:xlink="http://www.w3.org/1999/xlink" viewBox="0 0 30.982 88.35"><text x="14.802" y="41.814" fill="param(fill)" font-family="OPEN SANS" font-size="34.981" letter-spacing="0" line-height="125%" transform="matrix(1.3993 0 0 .71464 -16.508 20.498)" word-spacing="0"><tspan x="14.802" y="41.814" font-family="Adobe Heiti Std R" font-size="22.738">N</tspan></text><g><g transform="translate(-15.07 -14.07) matrix(.50522 0 0 .57874 15.12 .348)"><path id="a" fill="none" stroke="param(outline)" stroke-width=".25" d="m32 35v-32" transform="translate(-1.438 34.573)"/><path id="b" fill="param(fill)" stroke="param(outline)" stroke-width="3" d="m32-9.453l28.938 73.826-29-29-29 29z" transform="translate(-1.438 34.573)"/><path id="c" fill="none" stroke="param(outline)" stroke-linecap="square" d="m32-9.453l29 73.45-29-29-29 29z" transform="translate(-1.438 34.573)"/><path id="d" fill="none" stroke="param(outline)" stroke-width=".25" d="m4 92.82l6.74-3.891"/><path id="e" fill="none" stroke="param(outline)" stroke-width=".25" d="m4.603 90.7l10.397-6"/><path id="f" fill="none" stroke="param(outline)" stroke-width=".25" d="m3 95.17l4-2.309"/><path id="g" fill="none" stroke="param(outline)" stroke-width=".25" d="m5.442 88.45l13.856-8"/><path id="h" fill="none" stroke="param(outline)" stroke-width=".25" d="m12 72.26l18.686-10.812"/><path id="i" fill="none" stroke="param(outline)" stroke-width=".25" d="m14.593 65.45l16.09-9.291"/><path id="j" fill="none" stroke="param(outline)" stroke-width=".25" d="m15.343 63.24l15.343-8.858"/><path id="k" fill="none" stroke="param(outline)" stroke-width=".25" d="m16.877 60.58l13.809-7.972"/><path id="l" fill="none" stroke="param(outline)" stroke-width=".25" d="m17.511 58.45l13.174-7.606"/><path id="m" fill="none" stroke="param(outline)" stroke-width=".25" d="m18.412 56.15l12.274-7.087"/><path id="n" fill="none" stroke="param(outline)" stroke-width=".25" d="m19 54.04l11.427-6.597"/><path id="o" fill="none" stroke="param(outline)" stroke-width=".25" d="m20 51.757l10.822-6.311"/><path id="p" fill="none" stroke="param(outline)" stroke-width=".25" d="m20.826 49.45l9.86-5.693"/><path id="q" fill="none" stroke="param(outline)" stroke-width=".25" d="m21.48 47.3l9.206-5.315"/><path id="r" fill="none" stroke="param(outline)" stroke-width=".25" d="m23 44.647l7.686-4.437"/><path id="s" fill="none" stroke="param(outline)" stroke-width=".25" d="m23.744 42.45l6.928-4"/><path id="t" fill="none" stroke="param(outline)" stroke-width=".25" d="m24.549 40.21l6.137-3.543"/><path id="u" fill="none" stroke="param(outline)" stroke-width=".25" d="m25 38.18l5.686-3.283"/><path id="v" fill="none" stroke="param(outline)" stroke-width=".25" d="m26.663 35.446l4.02-2.323"/><path id="w" fill="none" stroke="param(outline)" stroke-width=".25" d="m27.617 33.12l3.069-1.772"/><path id="x" fill="none" stroke="param(outline)" stroke-width=".25" d="m28 31.13l2.686-1.551"/><path id="y" fill="none" stroke="param(outline)" stroke-width=".25" d="m29.15 28.694l1.534-.886"/><path id="z" fill="none" stroke="param(outline)" stroke-width=".25" d="m13 69.909l17.686-10.211"/><path id="A" fill="none" stroke="param(outline)" stroke-width=".25" d="m9.206 79.19l21.48-12.402"/><path id="B" fill="none" stroke="param(outline)" stroke-width=".25" d="m8.36 81.45l22.326-12.89"/><path id="C" fill="none" stroke="param(outline)" stroke-width=".25" d="m7.671 83.62l19.946-11.516"/><path id="D" fill="none" stroke="param(outline)" stroke-width=".25" d="m6.137 86.27l17.02-9.827"/><path id="E" fill="none" stroke="param(outline)" stroke-width=".25" d="m10 76.956l20.686-11.943"/><path id="F" fill="none" stroke="param(outline)" stroke-width=".25" d="m11.279 74.45l19.407-11.205"/><path id="G" fill="none" stroke="param(outline)" stroke-width=".25" d="m14 67.56l16.686-9.634"/><path id="H" fill="none" stroke="param(outline)" stroke-width=".25" d="m30.562 65.744v-43.566" transform="translate(0 3.829)"/></g><g transform="translate(-15.07 -14.07) matrix(-.50522 0 0 -.57874 45.998 116.15)"><use xlink:href="#a"/><use xlink:href="#b"/><use xlink:href="#c"/><use xlink:href="#d"/><use xlink:href="#e"/><use xlink:href="#f"/><use xlink:href="#g"/><use xlink:href="#h"/><use xlink:href="#i"/><use xlink:href="#j"/><use xlink:href="#k"/><use xlink:href="#l"/><use xlink:href="#m"/><use xlink:href="#n"/><use xlink:href="#o"/><use xlink:href="#p"/><use xlink:href="#q"/><use xlink:href="#r"/><use xlink:href="#s"/><use xlink:href="#t"/><use xlink:href="#u"/><use xlink:href="#v"/><use xlink:href="#w"/><use xlink:href="#x"/><use xlink:href="#y"/><use xlink:href="#z"/><use xlink:href="#A"/><use xlink:href="#B"/><use xlink:href="#C"/><use xlink:href="#D"/><use xlink:href="#E"/><use xlink:href="#F"/><use xlink:href="#G"/><use xlink:href="#H"/></g></g></svg>