<svg xmlns="http://www.w3.org/2000/svg" width="100%" height="100%" viewBox="0 0 11 11"><g transform="matrix(0.75 0 0 0.75 0 0)"><rect width="7.6" height="7.6" x="1.7" y="1.7" fill="none" stroke="#425a75" stroke-width=".1"/><rect width="7" height="7" x="2" y="2" fill="#6e97c4"/><rect width="1" height="1" x="2" y="0" fill="#425a75"/><rect width="1" height="1" x="4" y="0" fill="#425a75"/><rect width="1" height="1" x="6" y="0" fill="#425a75"/><rect width="1" height="1" x="8" y="0" fill="#425a75"/><rect width="1" height="1" x="2" y="10" fill="#425a75"/><rect width="1" height="1" x="4" y="10" fill="#425a75"/><rect width="1" height="1" x="6" y="10" fill="#425a75"/><rect width="1" height="1" x="8" y="10" fill="#425a75"/><rect width="1" height="1" x="0" y="2" fill="#425a75"/><rect width="1" height="1" x="0" y="4" fill="#425a75"/><rect width="1" height="1" x="0" y="6" fill="#425a75"/><rect width="1" height="1" x="0" y="8" fill="#425a75"/><rect width="1" height="1" x="10" y="2" fill="#425a75"/><rect width="1" height="1" x="10" y="4" fill="#425a75"/><rect width="1" height="1" x="10" y="6" fill="#425a75"/><rect width="1" height="1" x="10" y="8" fill="#425a75"/></g><g transform="matrix(0.34375 0 0 0.34375 0 0)"><rect width="13" height="13" x="19" y="19" fill="#5a8c5a" rx="2.615"/><g fill-rule="evenodd"><path fill="#fff" stroke="#fff" stroke-linecap="round" stroke-linejoin="round" stroke-width="2.6" d="m21.6 25.499999h7.8"/><path fill="#fff" stroke="#fff" stroke-linecap="round" stroke-linejoin="round" stroke-width="2.6" d="m25.5 29.399999v-7.799999"/><path fill="#fcffff" d="m20.3 25.499999h10.4s0 0 0-2.6c0-2.599999-.65-2.599999-5.2-2.599999s-5.2 0-5.2 2.599999z" opacity=".3"/></g></g></svg>