<svg xmlns="http://www.w3.org/2000/svg" xmlns:svg="http://www.w3.org/2000/svg" id="svg30" width="24" height="24" version="1.1"><metadata id="metadata36"/><g id="g943"><path id="path2" d="m 2.5,7.4999999 h 19 V 21.5 h -19 z" style="fill:#e6e6e6;stroke:#6e97c4"/><path id="path4" d="m 2.5,2.4999999 h 19 v 5 h -19 z" style="fill:#bad9ec;stroke:#6e97c4"/><path id="path6" d="M 5,4.9999999 H 9" style="fill:none;stroke:#6e97c4;stroke-width:2"/><path id="path8" d="m 11,4.9999999 h 7.999999" style="fill:none;stroke:#6e97c4;stroke-width:2"/><g id="g28" transform="translate(0,-9.2)" style="stroke:#6e97c4"><path id="path16" d="M 5,18.7 H 9" style="fill:none"/><path id="path18" d="m 11,18.7 h 7.999999" style="fill:none"/><path id="path20" d="M 5,21.7 H 9" style="fill:none"/><path id="path22" d="m 11,21.7 h 7.999999" style="fill:none"/><path id="path24" d="M 5,24.7 H 9" style="fill:none"/><path id="path26" d="m 11,24.7 h 7.999999" style="fill:none"/></g><path id="path8-6" d="m 7.1700004,14.900022 a 4.7100076,4.7099997 0 0 0 4.7100076,4.71 4.7100076,4.7099997 0 0 0 4.710008,-4.71 4.7100076,4.7099997 0 0 0 -4.710008,-4.71 4.7100076,4.7099997 0 0 0 -4.7100076,4.71 z" style="opacity:.8;fill:#e6e6e6;stroke:#505050;stroke-width:1.03999996;stroke-linecap:round;stroke-linejoin:round;stroke-dashoffset:7"/><g id="g16" transform="matrix(1.0000016,0,0,0.99999994,-1.1118864e-5,2.258824e-5)" style="fill-rule:evenodd"><path id="path10" d="m 16,17.8 c 0,1.18 -1.18,1.18 -1.18,1.18 l 4.12,4.12 1.18,-1.18 z" style="fill:#ffcc30;stroke:#505050;stroke-width:1.03999996;stroke-linejoin:round"/><path id="path12" d="m 16.9,18.7 -1.18,-1.18 -1.18,1.18 1.18,1.18 z" style="stroke:#505050;stroke-width:1.03999996;stroke-linejoin:round"/><path id="path14" d="m 14.5,12.2 c -1.18,-1.77 -2.62,-2 -3.53,-1.18 -0.917,0.823 1.18,0.589 2.36,1.77 1.18,1.18 0,3.53 1.18,3.53 1.18,0 1.18,-2.36 0,-4.12 z" style="opacity:.7;fill:#fcffff"/></g><path id="path18-7" d="m 19.20002,21.700022 -2.360004,-2.36" style="opacity:.5;stroke:#fcffff;stroke-width:1.03999996;stroke-linecap:round;stroke-linejoin:round"/></g></svg>