<svg xmlns="http://www.w3.org/2000/svg" xmlns:xlink="http://www.w3.org/1999/xlink" width="24" height="24"><linearGradient id="a" x1=".416" x2="23.584" y1="10.903" y2="10.903" gradientUnits="userSpaceOnUse"><stop offset="0" stop-color="#9e9e9e" stop-opacity=".568"/><stop offset=".5" stop-color="#9e9e9e"/><stop offset="1" stop-color="#9e9e9e" stop-opacity=".572"/></linearGradient><path fill="#498049" d="m14.892578 19.973633v4.026367h2v-4.026367z"/><path fill="none" stroke="url(#a)" stroke-linecap="round" stroke-width="2" d="m1.4298598 10.903339h21.1402802"/><path fill="#498049" d="m9.3339844-.02945891v.82441814 9.05249767.8244181h1.9999996v-.8244181-9.05249767-.82441814z"/><path fill="#ffe6d5" stroke="#ffcba8" stroke-width="2" d="m10.333256 19.623725v-8.039268"/><path fill="#8cbe8c" stroke="#cee3ce" stroke-width="2" d="m15.892872 19.999884v-9.576981"/><path fill="#5ba15b" d="m15.607917 10.423828v9.576172h.569322v-9.576172z"/><path fill="#e80000" d="m10.100419 11.583984v8.040229h.467131v-8.040229z"/><g fill="#fff" stroke="#7e7e7e" stroke-linecap="round" stroke-linejoin="round"><path stroke-width="1.19" d="m8.928049 9.540932h2.810427v2.810427h-2.810427z" opacity=".997"/><path stroke-width="1.19" d="m14.487658 9.540932h2.810427v2.810427h-2.810427z" opacity=".997"/><path stroke-width=".951" d="m14.778381 19.052471h2.246235v2.246235h-2.246235z" opacity=".536"/><path stroke-width=".951" d="m9.223778 17.994656h2.246235v2.246235h-2.246235z" opacity=".536"/></g><g transform="matrix(.70000007 0 0 .69999993 -32.671712 30.638281)"><rect width="10" height="10" x="47.89" y="-20.178" fill="#d26464" rx="2.011"/><g fill-rule="evenodd"><path fill="#fcffff" d="m48.889584-15.177545h7.999999s0 0 0-2-.5-2-4-2c-3.499999 0-3.999999 0-3.999999 2z" opacity=".3"/><path fill="#fff" stroke="#fff" stroke-linecap="round" stroke-linejoin="round" stroke-width="2" d="m50.768263-13.056225 4.24264-4.24264"/><path fill="#fff" stroke="#fff" stroke-linecap="round" stroke-linejoin="round" stroke-width="2" d="m50.768263-17.298865 4.24264 4.24264"/></g></g><g transform="matrix(.63636364 0 0 .63636364 30.841475 21.941358)"><rect width="11" height="11" x="-23.785" y="-32.722" fill="#c4a000" rx="2.011"/><g fill="#fcffff"><path d="m-18.785123-31.722418v2.0625c-.537663.111041-1.024662.383291-1.375.78125l-1.78125-1.03125-.5.875 1.78125 1.03125c-.08206.247432-.125.506395-.125.78125s.04294.533818.125.78125l-1.78125 1.03125.5.875 1.78125-1.03125c.352503.40042.832682.670182 1.375.78125v2.0625h1v-2.0625c.537663-.111041 1.024662-.383291 1.375-.78125l1.78125 1.03125.5-.875-1.78125-1.03125c.08206-.247432.125-.506395.125-.78125s-.04294-.533818-.125-.78125l1.78125-1.03125-.5-.875-1.78125 1.03125c-.352503-.40042-.832682-.670182-1.375-.78125v-2.0625zm.5 3.5c.552 0 1 .448 1 1s-.448 1-1 1-1-.448-1-1 .448-1 1-1z"/><path fill-rule="evenodd" d="m-22.785123-26.722418 9-.0096s0 0 0-2c0-2.9904-1-2.9904-4.5-2.9904s-4.5 0-4.5 3z" opacity=".3"/></g></g></svg>