<svg xmlns="http://www.w3.org/2000/svg" width="24" height="24"><g transform="matrix(.69230769 0 0 .69230769 1.846154 1.846154)"><rect width="13" height="13" x="19" y="19" fill="#5a8c5a" rx="2.615"/><g fill-rule="evenodd"><path fill="#fff" stroke="#fff" stroke-linecap="round" stroke-linejoin="round" stroke-width="2.6" d="m21.6 25.499999h7.8"/><path fill="#fff" stroke="#fff" stroke-linecap="round" stroke-linejoin="round" stroke-width="2.6" d="m25.5 29.399999v-7.799999"/><path fill="#fcffff" d="m20.3 25.499999h10.4s0 0 0-2.6c0-2.599999-.65-2.599999-5.2-2.599999s-5.2 0-5.2 2.599999z" opacity=".3"/></g></g><g style="fill:#2a7fff;stroke:#333;stroke-width:1.001735;stroke-linejoin:round;stroke-miterlimit:.4;stroke-opacity:.972549"><circle cx="12" cy="20" r="8.5" transform="matrix(.29411765 0 0 .29411762 .470588 -2.382353)"/><circle cx="12" cy="20" r="8.5" transform="matrix(.29411765 0 0 .29411762 15.970588 -2.882352)"/><circle cx="12" cy="20" r="8.5" transform="matrix(.29411765 0 0 .29411762 -.029412 10.117648)"/><circle cx="12" cy="20" r="8.5" transform="matrix(.29411765 0 0 .29411762 7.470588 14.617648)"/></g><path fill="none" stroke="#000" d="m3.5999216 13.501961.3001568-7.5039218"/><path fill="none" stroke="#000" d="m6.4987252 3.4193958 10.5025498-.3387918"/><path fill="none" stroke="#000" d="m18.407492 5.2492817-6.314984 13.0014373"/><path fill="none" stroke="#000" d="m8.8559448 19.213567-3.2118895-1.927134"/></svg>