<svg xmlns="http://www.w3.org/2000/svg" xmlns:xlink="http://www.w3.org/1999/xlink" width="24" height="24"><linearGradient id="a" x1="16.5" x2="12.5" y1="22.5" y2="16.5" gradientUnits="userSpaceOnUse"><stop offset="0" stop-color="#edd400"/><stop offset="1" stop-color="#fff17a"/></linearGradient><g transform="translate(0 -8)"><path fill="url(#a)" fill-rule="evenodd" stroke="#c4a000" stroke-linecap="round" stroke-linejoin="round" d="m.5 17.5 4-5h16v10h-16z"/><text x="4.187" y="20.293" fill="#2e3436" font-family="FreeSans" font-weight="bold" letter-spacing="0" word-spacing="0"><tspan x="4.187" y="20.293" font-size="8">abc</tspan></text><rect width="11" height="11" x="13" y="21" fill="#c4a000" rx="2.01"/><path fill="#fcffff" d="m32.8 15.8v2.06c-.538.111-1.02.383-1.38.781l-1.78-1.03-.5.875 1.78 1.03c-.0821.247-.125.506-.125.781s.0429.534.125.781l-1.78 1.03.5.875 1.78-1.03c.353.4.833.67 1.38.781v2.06h1v-2.06c.538-.111 1.02-.383 1.38-.781l1.78 1.03.5-.875-1.78-1.03c.0821-.247.125-.506.125-.781s-.0429-.534-.125-.781l1.78-1.03-.5-.875-1.78 1.03c-.353-.4-.833-.67-1.38-.781v-2.06zm.5 3.5c.552 0 1 .448 1 1s-.448 1-1 1-1-.448-1-1 .448-1 1-1z"/><path fill="#fcffff" fill-rule="evenodd" d="m14 27 9-.0096v-2c0-2.99-1-2.99-4.5-2.99s-4.5 0-4.5 3v2z" opacity=".3"/><path fill="#fff" d="m14.6 30.9c.474-1.12.851-2.32.95-3.75l2.31 2.28c-1.32.254-2.31.846-3.26 1.47z"/><path fill="#fff" d="m16.3 26.4 2.3 2.25 4.25-5.3-1.1-1.15z"/><path fill="none" stroke="#fff" d="m16.4 28.7 1.82-1.82"/></g></svg>