<svg xmlns="http://www.w3.org/2000/svg" width="24" height="24"><g transform="translate(0 -8)"><path fill="#edd400" stroke="#edd400" stroke-linecap="round" stroke-linejoin="round" stroke-width="1.455" d="m16.5 8.5c0 4.418278-3.581722 8-8 8s-8-3.581722-8-8 3.581722-8 8-8 8 3.581722 8 8z" transform="matrix(.68750004 0 0 .68750004 6.15625 14.15625)"/><rect width="11" height="11" x="13" y="21" fill="#4e9a06" opacity=".9" rx="2.011"/><path fill="#fff" stroke="#fff" stroke-linecap="round" stroke-linejoin="round" d="m15.5 29.5 3-6 3 6z" opacity=".9"/><path fill="#fcffff" fill-rule="evenodd" d="m14 27 9-.0096s0 0 0-2c0-2.9904-1-2.9904-4.5-2.9904s-4.5 0-4.5 3z" opacity=".3"/><g fill="#edd400" stroke="#edd400" stroke-linecap="round" stroke-linejoin="round" stroke-width="1.5"><path d="m1.5 20h3" opacity=".9"/><path d="m19.5 20h3" opacity=".9"/><path d="m12 9.5v3" opacity=".9"/><path d="m12 27.5v3" opacity=".9"/><path d="m4.7928932 12.792893 1.4142136 1.414214" opacity=".9"/><path d="m5.0857862 27 1.414214-1.414214" opacity=".9"/><path d="m17.585786 14.414214 1.414214-1.414214" opacity=".9"/></g></g></svg>