<svg xmlns="http://www.w3.org/2000/svg" xmlns:xlink="http://www.w3.org/1999/xlink" width="24" height="24"><linearGradient id="a" x1="12" x2="12" y1="18" y2="24" gradientTransform="matrix(.68421052 0 0 .76923078 .791551 1025.4797)" gradientUnits="userSpaceOnUse"><stop offset="0" stop-color="#4dadee"/><stop offset="1" stop-color="#c7e5f9"/></linearGradient><linearGradient id="b" x1="9" x2="9" y1="21" y2="24" gradientTransform="matrix(.66666663 0 0 .77776395 1 1025.1402)" gradientUnits="userSpaceOnUse"><stop offset="0" stop-color="#d8cd7e"/><stop offset="1" stop-color="#ab983d"/></linearGradient><g transform="translate(0 -1028.3622)"><path fill="#fff" fill-rule="evenodd" stroke="#979797" stroke-linejoin="round" d="m1.5 1049.8622v-21h10l5 5v16.0004z"/><path fill="url(#a)" stroke="#597284" d="m2.5020804 1035.8643h13v10h-13z"/><path fill="url(#b)" fill-rule="evenodd" d="m3 1040.6956 3.3333332-2.3334 8.6666668 3.8888v3.1112h-12z"/><rect width="11" height="11" x="13" y="1041.362" fill="#3c5a6e" rx="2.011"/><path fill="#fcffff" fill-rule="evenodd" d="m14.000001 1047.3622 8.999999-.01s0 0 0-2c0-2.9904-1-2.9904-4.5-2.9904s-4.5 0-4.5 3c0 2 0 2 .000001 2z" opacity=".3"/><g stroke-linejoin="round"><path fill="none" stroke="#fff" stroke-linecap="round" d="m21.004293 1044.8679 1.495712 1.9943-1.495712 1.9943"/><path fill="#f0f0f0" fill-rule="evenodd" stroke="#979797" d="m11.5 1028.8622v5h5z"/><path fill="none" stroke="#fff" stroke-linecap="round" stroke-width="1.5" d="m17.75 1045.3622v-1.25h-2.5v5.5h2.5v-1"/><path fill="none" stroke="#fff" stroke-linecap="round" d="m17 1046.8622h4.393183"/></g></g></svg>