<svg xmlns="http://www.w3.org/2000/svg" width="24" height="24" viewBox="0 0 6.35 6.35"><g fill-rule="evenodd"><path fill="#888a85" d="m.21387155.81343653v.41939607h5.87154485v-.41939607z"/><path fill="#b2b2b2" d="m.63347422 1.2328326v4.6133566h.41939608v-4.6133566z"/><path fill="#b2b2b2" d="m1.0526637 1.9591893v.4193961h.8389984v-.4193961z"/><path fill="#b2b2b2" d="m1.0379072 4.9783355v.4193958h.838792v-.4193958z"/><path fill="#fce94f" stroke="#afcc00" stroke-width=".193" d="m3.3727126 4.7698011h2.4481208v.83646154h-2.4481208z"/><path fill="#b2b2b2" d="m1.0130849 3.4805437v.4193961h.8389983v-.4193961z"/><path fill="#fce94f" stroke="#afcc00" stroke-width=".193" d="m3.3727129 3.272011h2.4481208v.83646154h-2.4481208z"/><path fill="#fce94f" stroke="#afcc00" stroke-width=".193" d="m3.3727124 1.7506566h2.4481208v.83646154h-2.4481208z"/></g><path fill="none" stroke="#415a75" stroke-width=".22" d="m2.0725693 4.8947917.4409723.6614584.6614583-1.1024306"/><path fill="none" stroke="#415a75" stroke-width=".22" d="m2.0725693 3.4616319.4409722.6614585.6614584-1.1024306"/><path fill="none" stroke="#415a75" stroke-width=".22" d="m2.0725693 2.0284723.4409723.6614583.6614583-1.1024306"/></svg>