<svg xmlns="http://www.w3.org/2000/svg" xmlns:xlink="http://www.w3.org/1999/xlink" width="24" height="24"><defs><linearGradient id="a" x1="-18.901" x2="-10.901" y1="10.222" y2="10.222" gradientUnits="userSpaceOnUse"><stop offset="0" stop-color="#ececec"/><stop offset="1" stop-color="#f1f1f1"/></linearGradient><linearGradient id="b" x1="1" x2="23" y1="12" y2="12" gradientUnits="userSpaceOnUse" xlink:href="#a"/></defs><path fill="url(#b)" stroke="#9a9a9a" stroke-width="1" d="M 1.4999995,1.4999975 H 22.500001 V 22.500002 H 1.4999995 Z"/><path fill="#333" fill-opacity=".289" d="m 2.9749119,12.114504 v 1.462962 H 21.304026 v -1.462962 z m 0,2.925925 v 1.462963 H 16.721748 v -1.462963 z m 0,2.925926 v 1.462963 H 19.7766 v -1.462963 z"/><path fill="none" stroke="#ececec" stroke-linecap="round" stroke-linejoin="round" stroke-width="3" d="M 7.3758592,4.371852 4,7.685926 7.3758592,11 M 13,11 16.375859,7.685926 13,4.371852 M 9.0631009,11 11.312758,4.371852"/><path fill="none" stroke="#854cc1" stroke-linecap="round" stroke-linejoin="round" stroke-width="1.2" d="M 7.3758592,4.371852 4,7.685926 7.3758592,11 M 13,11 16.375859,7.685926 13,4.371852 M 9.0631009,11 11.312758,4.371852"/><g stroke-dashoffset=".5" stroke-linejoin="round"><path fill="#505050" stroke="#505050" stroke-linecap="round" stroke-width=".56" d="m 12.03,17.13 3.877,2.239 -4.627,3.351 z" transform="matrix(0.81753454,0,0,0.81753454,4.9648775,0.68372814)"/><path fill="#fce94f" stroke="#8b7617" stroke-linecap="round" stroke-width=".56" d="M 18.372,6.147 22.248,8.385 15.907,19.369 12.03,17.131 Z" transform="matrix(0.81753454,0,0,0.81753454,4.9648775,0.68372814)"/><path fill="none" stroke="#fcffff" stroke-width="1.492" d="m 19.614,7.726 -5.596,9.691" opacity=".5" transform="matrix(0.81753454,0,0,0.81753454,4.9648775,0.68372814)"/><path fill-opacity=".588" stroke="#000" stroke-width="1.492" d="m 20.906,8.472 -5.595,9.691" opacity=".25" transform="matrix(0.81753454,0,0,0.81753454,4.9648775,0.68372814)"/><path fill="#fce94f" stroke="#8b7617" stroke-linecap="round" stroke-width=".56" d="M 20.583,8.285 14.614,18.623" opacity=".5" transform="matrix(0.81753454,0,0,0.81753454,4.9648775,0.68372814)"/><path fill="#969696" stroke="#969696" stroke-linecap="square" stroke-width=".373" d="M 12.266,21.747 15.4,19.297 14.11,18.553 Z" transform="matrix(0.81753454,0,0,0.81753454,4.9648775,0.68372814)"/><path fill="#fce94f" stroke="#8b7617" stroke-linecap="round" stroke-width=".56" d="M 18.968,7.353 12.999,17.69" opacity=".5" transform="matrix(0.81753454,0,0,0.81753454,4.9648775,0.68372814)"/><g fill="#e6e6e6" stroke-width=".373"><path stroke="#969696" stroke-linecap="round" d="m 18.639,5.34 4.174,2.41 -0.812,1.408 -4.175,-2.41 z" transform="matrix(0.81753454,0,0,0.81753454,4.9648775,0.68372814)"/><path stroke="#e6e6e6" stroke-linecap="square" d="m 11.732,21.575 0.613,-4.041 1.29,0.745 z" transform="matrix(0.81753454,0,0,0.81753454,4.9648775,0.68372814)"/></g></g></svg>