<svg xmlns="http://www.w3.org/2000/svg" xmlns:xlink="http://www.w3.org/1999/xlink" width="24" height="24"><filter id="a" width="1.5" height="1.5" x="-.25" y="-.25"><feGaussianBlur in="SourceAlpha" result="blur" stdDeviation="2"/><feColorMatrix result="bluralpha" type="matrix" values="1 0 0 0 0 0 1 0 0 0 0 0 1 0 0 0 0 0 0.351000 0"/><feOffset dx="7.5" dy="7.5" in="bluralpha" result="offsetBlur"/><feMerge><feMergeNode in="offsetBlur"/><feMergeNode in="SourceGraphic"/></feMerge></filter><g transform="translate(0 -8)"><rect width="19" height="10" x="2.5" y="14.5" fill="#6d97c4" stroke="#415a75" stroke-linecap="round" rx="2"/><path fill="#90b1d1" d="m3 15v3c0 1 2 1 3 1h12c1 0 3 0 3-1v-3z"/><path fill="#7c7c7c" stroke="#545658" stroke-linecap="round" d="m6.5 20.5h11v4h-11z"/><rect width="19" height="10" x="2.5" y="14.5" fill="none" stroke="#415a75" stroke-linecap="round" rx="2"/><path fill="#ededed" stroke="#959595" stroke-linecap="round" d="m7.5 10.5h9v6h-9z"/><path fill="#fbfefe" stroke="#959595" stroke-linecap="round" d="m7.5 21.5h9v7.9999995h-9z"/><g fill="none"><path stroke="#969696" d="m9 25.5h6"/><path stroke="#969696" d="m9 27.5h6"/><path stroke="#969696" d="m9 23.5h6"/><path stroke="#767676" d="m7.0000002 21.500001h9.9999998"/><path stroke="#767676" d="m7.0000002 22.5h9.9999998" opacity=".5"/></g></g></svg>