<svg xmlns="http://www.w3.org/2000/svg" width="24" height="24"><g transform="translate(0 -8)"><g stroke-linejoin="round"><path fill="#ffcc30" fill-rule="evenodd" stroke="#505050" d="m7.5000001 22.5c0 2 2 2 2 2s-7 7-7 7l-2.00000001-2z"/><path d="m17.96122 7c0 3.354712-2.668929 6.074244-5.96122 6.074244s-5.9612203-2.719532-5.9612203-6.074244c0-3.3547121 2.6689293-6.07424355 5.9612203-6.07424355s5.96122 2.71953145 5.96122 6.07424355z" transform="matrix(1.3420071 0 0 1.3170365 -1.604085 8.279109)" style="opacity:.8;fill:#e6e6e6;stroke:#505050;stroke-width:.752183;stroke-linecap:round;stroke-dashoffset:7"/><rect width="10.8" height="10.8" x="13" y="21" fill="#6d97c4" stroke="#000" stroke-width=".4" rx=".982"/><path fill="none" stroke="#fff" stroke-linecap="round" stroke-width="2" d="m21 29.8c-1.8-2-2.890781-1.970213-5.200033-3.401863 2.200033-1.398137 3.400033-1.198137 5.200033-3.398137"/><path fill-rule="evenodd" stroke="#505050" d="m10 24-2 2-2-2 2-2z"/></g><path fill="#fcffff" fill-rule="evenodd" d="m10 13c2-3 4.442248-3.398055 6-2s-2 1-4 3 0 6-2 6c-1.9999999 0-1.9999999-4 0-7z" opacity=".7"/><path stroke="#fcffff" stroke-linecap="round" stroke-linejoin="round" d="m2.0000001 29 4-4" opacity=".5"/><rect width="10.4" height="5.2" x="13.2" y="21.2" fill="#fff" fill-opacity=".12" rx=".813" ry=".713"/></g></svg>