<svg xmlns="http://www.w3.org/2000/svg" width="24" height="24" viewBox="0 0 24 24"><g transform="translate(0 -8)"><g stroke="#6e97c4"><path fill="#e6e6e6" d="m2.5 15.5h19v14h-19z"/><path fill="#bad9ec" d="m2.5 10.5h19v5h-19z"/><path fill="none" stroke-width="2" d="m5 13h4"/><path fill="none" stroke-width="2" d="m11 13h7.999999"/><path fill="none" d="m5 17.5h4"/><path fill="none" d="m11 17.5h7.999999"/><path fill="none" d="m5 20.5h4"/><path fill="none" d="m11 20.5h7.999999"/><path fill="none" d="m5 23.5h4"/><path fill="none" d="m11 23.5h7.999999"/><path fill="none" d="m5 26.5h4"/><path fill="none" d="m11 26.5h7.999999"/></g><path fill="#de9292" fill-rule="evenodd" stroke="#d26464" stroke-linecap="round" d="m6.5 9.5h5v21h-5z"/><path fill="none" stroke="#fff" stroke-width="2" d="m8 13h2"/><rect width="10" height="10" x="14" y="22" fill="#d26464" rx="2.011"/><path d="m16.87868 29.12132 4.24264-4.24264" style="fill:#fcffff;fill-rule:evenodd;stroke:#fff;stroke-width:2;stroke-linecap:round;stroke-linejoin:round"/><path fill="#fcffff" fill-rule="evenodd" d="m15.000001 27h7.999999s0 0 0-2-.5-2-4-2c-3.499999 0-3.999999 0-3.999999 2z" opacity=".3"/><path d="m16.87868 24.87868 4.24264 4.24264" style="fill:#fcffff;fill-rule:evenodd;stroke:#fff;stroke-width:2;stroke-linecap:round;stroke-linejoin:round"/></g></svg>