<svg xmlns="http://www.w3.org/2000/svg" width="16" height="16" viewBox="0 0 4.233 4.233"><g stroke-width=".265"><path fill="#eeeeec" stroke="#888a85" stroke-linecap="round" stroke-linejoin="round" d="m1.4552084.66145835h2.1166667v2.11666665h-2.1166667z"/><path fill="#eeeeec" stroke="#888a85" stroke-linecap="round" stroke-linejoin="round" d="m.9260417 1.190625h2.1166667v2.1166666h-2.1166667z"/><path fill="none" stroke="#415a75" d="m1.9843547 1.5875.0000406 1.0583261c.00603.1622428.524478.1760075.5291464.0000146v-2.2303419c0-.30092221-.5291667-.28575163-.5291667-.00001449v.11368236"/><path fill="none" stroke="#888a85" d="m.3968752 2.5026501v1.3338083h1.5983331"/></g><g transform="matrix(.12211529 0 0 .12211529 .06106 .325644)"><rect width="13" height="13" x="19" y="19" fill="#5a8c5a" rx="2.615"/><g fill-rule="evenodd"><path fill="#fff" stroke="#fff" stroke-linecap="round" stroke-linejoin="round" stroke-width="2.6" d="m21.6 25.499999h7.8"/><path fill="#fff" stroke="#fff" stroke-linecap="round" stroke-linejoin="round" stroke-width="2.6" d="m25.5 29.399999v-7.799999"/><path fill="#fcffff" d="m20.3 25.499999h10.4s0 0 0-2.6c0-2.599999-.65-2.599999-5.2-2.599999s-5.2 0-5.2 2.599999z" opacity=".3"/></g></g></svg>