<svg xmlns="http://www.w3.org/2000/svg" xmlns:xlink="http://www.w3.org/1999/xlink" width="24" height="24"><linearGradient id="a" x1="16.5" x2="12.5" y1="22.5" y2="16.5" gradientUnits="userSpaceOnUse"><stop offset="0" stop-color="#edd400"/><stop offset="1" stop-color="#fff17a"/></linearGradient><g transform="translate(0 -8)"><path fill="url(#a)" fill-rule="evenodd" stroke="#c4a000" stroke-linecap="round" stroke-linejoin="round" d="m.5 17.5 4-5h16v10h-16z"/><text x="4.187" y="20.293" fill="#2e3436" font-family="FreeSans" font-weight="bold" letter-spacing="0" word-spacing="0"><tspan x="4.187" y="20.293" font-size="8">abc</tspan></text><rect width="11" height="11" x="13" y="21" fill="#3c5a6e" rx="2.01"/><path fill="#fcffff" fill-rule="evenodd" d="m14 27 9-.0096v-2c0-2.99-1-2.99-4.5-2.99s-4.5 0-4.5 3c0 2 0 2 .000001 2z" opacity=".3"/><g fill="none" stroke="#fff" stroke-width="1.5"><path stroke-linecap="square" d="m21.5 26.2c0-1.52-1.24-2.75-3-2.74-1.9-.0154-3 1.25-3 3 0 1.44 1.5 2.5 3 2.5"/><path stroke-linecap="round" stroke-linejoin="round" d="m18.6 27 1.5 2-1.5 2"/></g></g></svg>