<svg xmlns="http://www.w3.org/2000/svg" xmlns:xlink="http://www.w3.org/1999/xlink" width="24" height="24" version="1.1"><ellipse cx="18.5" cy="15.5" fill="#2f5074" stroke="#2b3b4d" stroke-linecap="square" rx="4" ry="4"/><ellipse cx="7" cy="19" fill="#2f5074" stroke="#2b3b4d" stroke-linecap="square" rx="3.5" ry="3.5"/><metadata/><linearGradient id="c" x1="7.373" x2="7.449" y1="10" y2="15" gradientTransform="matrix(.65196 0 0 .6516 1.174 1.975)" gradientUnits="userSpaceOnUse"><stop offset="0" stop-color="#6e97c4"/><stop offset="1" stop-color="#aec7e2"/></linearGradient><path fill="url(#c)" d="m2.478 8.49c-.87 9.558-.435 4.779 0 0z"/><ellipse cx="9" cy="8" fill="#6e97c4" stroke="#2b3b4d" stroke-linecap="square" rx="6.5" ry="6.5"/><ellipse cx="19.5" cy="5.5" fill="#cbd8e7" stroke="#2b3b4d" stroke-linecap="square" rx="2" ry="2"/><g transform="matrix(.69231 0 0 .69231 1.8462 1.8462)"><rect width="13" height="13" x="19" y="19" fill="#5a8c5a" rx="2.615"/><g fill-rule="evenodd"><path fill="#fff" stroke="#fff" stroke-linecap="round" stroke-linejoin="round" stroke-width="2.6" d="m21.6 25.5h7.8"/><path fill="#fff" stroke="#fff" stroke-linecap="round" stroke-linejoin="round" stroke-width="2.6" d="m25.5 29.4v-7.8"/><path fill="#fcffff" d="m20.3 25.5h10.4v-2.6c0-2.6-0.65-2.6-5.2-2.6s-5.2 0-5.2 2.6z" opacity=".3"/></g></g></svg>