<svg xmlns="http://www.w3.org/2000/svg" width="24" height="24" viewBox="0 0 24 24"><g transform="translate(0 -8)"><rect width="7" height="7" x="2.5" y="23.5" fill="#8cbe8c" stroke="#4b4c4b" stroke-linecap="round" stroke-opacity=".957" rx="4"/><path fill="#f9ee94" fill-rule="evenodd" d="m5.5 9.5h13c2.216 0 4 1.784 4 4v4c0 2.216-1.784 4-4 4h-6c0 2-2.5 5-6 5 2.5-1.443376 2.0594341-2.769793 2-5h-3c-2.216 0-4-1.784-4-4v-4c0-2.216 1.784-4 4-4z"/><g fill="none"><path stroke="#fcf7ea" d="m2.5 20v-7c0-1 1.5-2.5 2.5-2.5h16"/><path stroke="#cba909" stroke-linecap="round" stroke-linejoin="round" d="m5.5 9.5h13c2.216 0 4 1.784 4 4v4c0 2.216-1.784 4-4 4h-6c0 2-2.5 5-6 5 2.5-1.443376 2.0594341-2.769793 2-5h-3c-2.216 0-4-1.784-4-4v-4c0-2.216 1.784-4 4-4z"/></g></g></svg>