<svg xmlns="http://www.w3.org/2000/svg" xmlns:xlink="http://www.w3.org/1999/xlink" width="16" height="16" enable-background="new"><filter id="a" color-interpolation-filters="sRGB"><feBlend in2="BackgroundImage" mode="darken"/></filter><filter id="b" color-interpolation-filters="sRGB"><feFlood flood-opacity=".5" result="flood"/><feComposite in="flood" in2="SourceGraphic" operator="in" result="composite1"/><feOffset dx="1.5" dy="1.5" result="offset"/><feComposite in="SourceGraphic" in2="offset" result="composite2"/></filter><clipPath id="c"><path d="m38.25 304.546h170.393v132.287h-170.393z"/></clipPath><path fill="#fff" stroke="#5d5daa" d="m.52.52h14.959v14.959h-14.959z"/><g stroke="#b0b0de" clip-path="url(#c)" filter="url(#b)" transform="matrix(.06785 0 0 .06785 -.27 -16.066)"><path fill="#e8e8f6" stroke="none" d="m40.398 303.183 158.731.873 3.745 131.626-158.237 1.99z"/><g fill="none"><path stroke-width="15.172" d="m42.373 307.067 154.39 127.028"/><path stroke-width="10" d="m67.68 331.256-29.024 27.018"/><path stroke-width="5" d="m157.584 406.513 44.747-52.896"/><path stroke-width="10" d="m100.005 358.53 45.636-54.08"/><path stroke-width="5" d="m150.008 297.416 56.568 45.962 19.193 103.036m-107.581-70.711-76.951 26.37"/></g></g><path fill="#e5e5f4" stroke="#9292d2" stroke-width="2" d="m1952.477 762.533h18.392v16.877h-18.392z" filter="url(#a)" transform="matrix(.09771 0 0 .10634 -178.682 -78.984)"/><path fill="#fff" stroke="#b0b0de" stroke-width="2.78" d="m1934.064 824.291h29.963v61.414h-29.963z" filter="url(#a)" transform="matrix(.08495 0 0 .08495 -153.61 -62.182)"/><path fill="#b0b0de" d="m2 2h9v1h-9z"/><path fill="none" stroke="#9292d2" stroke-linecap="square" stroke-width=".946" d="m2.471 4.505h11.024v8.99h-11.024z"/></svg>