<svg xmlns="http://www.w3.org/2000/svg" width="25.6" height="25.6"><g fill="none"><g><rect width="6.649" height="6.537" x="9.636" y="1.807" fill="#6e97c4"/><rect width="6.649" height="6.537" x="15.87" y="1.807" fill="#2b3b4d"/><rect width="6.649" height="6.537" x="9.636" y="7.935" fill="#2b3b4d"/><rect width="6.649" height="6.537" x="15.87" y="7.935" fill="#6d97c4"/><rect width="6.649" height="6.537" x="3.403" y="1.807" fill="#2d3e4d"/><rect width="6.649" height="6.537" x="3.403" y="7.935" fill="#6d97c4"/><rect width="6.649" height="6.537" x="9.636" y="14.063" fill="#6d97c4"/><rect width="6.649" height="6.537" x="3.403" y="14.063" fill="#2b3b4d"/><rect width="6.649" height="6.537" x="15.866" y="14.059" fill="#2b3b4d"/><rect width="19.947" height="19.61" x="3.403" y="1.807" fill="none" stroke="#fff" stroke-linejoin="round" stroke-width="1.262"/></g><g><rect width="6.039" height="6.156" x="7.408" y="5.119" fill="#6e97c4"/><rect width="6.039" height="6.156" x="13.069" y="5.119" fill="#2b3b4d"/><rect width="6.039" height="6.156" x="7.408" y="10.891" fill="#2b3b4d"/><rect width="6.039" height="6.156" x="13.069" y="10.891" fill="#6d97c4"/><rect width="6.039" height="6.156" x="1.747" y="5.119" fill="#2d3e4d"/><rect width="6.039" height="6.156" x="1.747" y="10.891" fill="#6d97c4"/><rect width="6.039" height="6.156" x="7.408" y="16.662" fill="#6d97c4"/><rect width="6.039" height="6.156" x="1.747" y="16.662" fill="#2b3b4d"/><rect width="6.039" height="6.156" x="13.065" y="16.659" fill="#2b3b4d"/><rect width="18.116" height="18.469" x="1.747" y="5.119" fill="none" stroke="#fff" stroke-miterlimit="0" stroke-width="1.262"/></g><path stroke="coral" stroke-linecap="round" stroke-linejoin="round" stroke-width="2.538" d="m0 0c3.7918.0171509 5.56841.0171509 5.32981 0 .04039 10.3588.04039 15.5383 0 15.5383-.04038 0-1.77661-.0007-5.208678-.0021v-6.93231" transform="translate(9.15433 1.50565)"/></g></svg>