<svg xmlns="http://www.w3.org/2000/svg" width="100%" height="100%" viewBox="0 0 11 11"><rect width="7.6" height="7.6" x="1.7" y="1.7" fill="none" stroke="#425a75" stroke-width=".1"/><rect width="7" height="7" x="2" y="2" fill="#6e97c4"/><rect width="1" height="1" x="2" y="0" fill="#425a75"/><rect width="1" height="1" x="4" y="0" fill="#425a75"/><rect width="1" height="1" x="6" y="0" fill="#425a75"/><rect width="1" height="1" x="8" y="0" fill="#425a75"/><rect width="1" height="1" x="2" y="10" fill="#425a75"/><rect width="1" height="1" x="4" y="10" fill="#425a75"/><rect width="1" height="1" x="6" y="10" fill="#425a75"/><rect width="1" height="1" x="8" y="10" fill="#425a75"/><rect width="1" height="1" x="0" y="2" fill="#425a75"/><rect width="1" height="1" x="0" y="4" fill="#425a75"/><rect width="1" height="1" x="0" y="6" fill="#425a75"/><rect width="1" height="1" x="0" y="8" fill="#425a75"/><rect width="1" height="1" x="10" y="2" fill="#425a75"/><rect width="1" height="1" x="10" y="4" fill="#425a75"/><rect width="1" height="1" x="10" y="6" fill="#425a75"/><rect width="1" height="1" x="10" y="8" fill="#425a75"/></svg>