<svg xmlns="http://www.w3.org/2000/svg" width="24" height="24"><path fill="none" stroke="#749fcf" stroke-width=".752" d="m12 2.287c7.116 3.532 6.1 16.777 0 19.426m-11.182-9.713h22.364m-20.992-5.311c5.693.758 13.825.758 19.518 0m-19.518 10.622c5.693-.758 13.825-.758 19.518 0m-9.708-15.024c-6.1 2.649-7.116 15.893 0 19.426"/><path fill="none" stroke="#5488c4" stroke-width="1.284" d="m6.966 13.81c0 6.713-5.423 12.156-12.113 12.156s-12.112-5.443-12.112-12.157 5.423-12.156 12.112-12.156c6.69 0 12.113 5.442 12.113 12.156z" transform="matrix(.94419 0 0 .81716 16.86 .716)"/><g stroke="#2b3b4d" stroke-linecap="round" stroke-linejoin="round"><path fill="none" stroke-width=".976" d="m5.491 6.947 4.394 11.085 4.831-10.981 3.973-.016"/><path fill="#fff" fill-rule="evenodd" stroke-width=".947" d="m4.5 12.5a1 1 0 1 1 -2 0 1 1 0 0 1 2 0z" transform="matrix(1.16314 0 0 1.21859 1.42 -8.285)"/><path fill="#fff" fill-rule="evenodd" stroke-width=".936" d="m4.5 12.5a1 1 0 1 1 -2 0 1 1 0 0 1 2 0z" transform="matrix(1.19051 0 0 1.21859 5.718 2.8)"/><path fill="#fff" fill-rule="evenodd" stroke-width=".947" d="m4.5 12.5a1 1 0 1 1 -2 0 1 1 0 0 1 2 0z" transform="matrix(1.16314 0 0 1.21859 10.522 -8.208)"/><path fill="#fff" fill-rule="evenodd" stroke-width=".947" d="m4.5 12.5a1 1 0 1 1 -2 0 1 1 0 0 1 2 0z" transform="matrix(1.16314 0 0 1.21859 14.618 -8.198)"/></g></svg>