<svg xmlns="http://www.w3.org/2000/svg" xmlns:xlink="http://www.w3.org/1999/xlink" width="24" height="24" enable-background="new 0 0 24 24" version="1.1" viewBox="0 0 24 24"><metadata/><defs><linearGradient id="linearGradient1011" x1="8" x2="19" y1="16.66" y2="13" gradientUnits="userSpaceOnUse"><stop offset="0" stop-color="#e6e6e6"/><stop offset="1" stop-color="#bfbfbf"/></linearGradient></defs><linearGradient id="a" x1="3.086" x2="20.912" y1="14.025" y2="10.882" gradientTransform="translate(0 .4535)" gradientUnits="userSpaceOnUse"><stop offset="0" stop-color="#c8e6fa"/><stop offset=".286" stop-color="#b7ddf6"/><stop offset=".852" stop-color="#8ac7eb"/><stop offset="1" stop-color="#7dc1e8"/></linearGradient><g><g stroke="#4774b4" stroke-linecap="round" stroke-linejoin="round" stroke-width=".75"><path fill="url(#a)" d="m21.049 12.457c0 4.987-4.054 9.039-9.049 9.039-4.998 0-9.049-4.052-9.049-9.039 0-4.995 4.052-9.046 9.049-9.046 4.995 0 9.049 4.051 9.049 9.046z" transform="translate(0 -.4535)"/><g fill="none"><path d="m12 3.887c4.762 4.763 4.762 12.37 0 17.135" transform="translate(0 -.4535)"/><path d="m12 3.887c-4.763 4.763-4.763 12.37 0 17.135" transform="translate(0 -.4535)"/><path d="m3.427 12.457h17.146" transform="translate(0 -.4535)"/><path d="m18.667 6.745c-2.675 1.918-10.309 2.067-13.335 0" transform="translate(0 -.4535)"/><path d="m18.667 18.163c-3.447-1.867-9.708-1.995-13.335 0" transform="translate(0 -.4535)"/></g></g></g><path fill="url(#linearGradient1011)" d="m12.071 11.929-5.5109 5.7538c5.4398-0.070571 11.44-0.17194 13.233-5.6827z" opacity=".852"/><g fill="#404040" stroke-linecap="round"><circle cx="12" cy="12" r="1.5" stroke-width="4"/><g stroke="#404040" stroke-linejoin="round"><g stroke-width=".75"><path d="m12 11.498v-8"/><path d="m12.479 12h8"/><path d="m6.6588 17.307 5.4123-5.3783"/></g><path stroke-width=".5" d="m14 5-2-2.75-2 2.75c1.331-0.75302 2.6643-0.75764 4 0z"/></g></g><g stroke="#404040" stroke-linecap="round" stroke-linejoin="round" stroke-width=".5"><path fill="none" stroke-dasharray=".5 1" d="m6.5602 17.683c3.0564 0.3173 11.224 0.80208 13.233-5.6827"/><path fill="#404040" d="m19 14 2.75-2-2.75-2c0.75302 1.331 0.75764 2.6643 0 4z"/><path fill="#404040" d="m5.7696 15.382-0.53033 3.3588 3.3588-0.53033c-1.4736-0.4087-2.4197-1.3482-2.8284-2.8284z"/></g></svg>