<svg xmlns="http://www.w3.org/2000/svg" width="24" height="24"><g><path fill="#7c96a8" stroke="#517083" stroke-width="1.002" d="m2.5017811 1034.7051.083121 6.8555 6.1509752.6314 4.4054287 8.2086 8.229007-.3608 1.246819-14.2523-5.901611-5.4122-10.5564036.09z" transform="translate(0 -1028.3622)"/><g fill="#e6e6e6" fill-rule="evenodd" stroke="#4b4c4b" stroke-width=".457" transform="translate(0 -1028.3622)"><ellipse cx="6.977" cy="1030.89" rx="1.771" ry="1.771"/><ellipse cx="17.646" cy="1031.025" rx="1.771" ry="1.771"/><ellipse cx="21.608" cy="1035.976" rx="1.771" ry="1.771"/><ellipse cx="2.521" cy="1041.559" rx="1.771" ry="1.771"/><ellipse cx="21.518" cy="1049.751" rx="1.771" ry="1.771"/><ellipse cx="14.045" cy="1049.751" rx="1.771" ry="1.771"/><ellipse cx="9.453" cy="1042.279" rx="1.771" ry="1.771"/><ellipse cx="18.637" cy="1043.629" rx="1.771" ry="1.771"/><ellipse cx="13.685" cy="1036.607" rx="1.771" ry="1.771"/><ellipse cx="2.701" cy="1034.986" rx="1.771" ry="1.771"/></g></g></svg>