<svg xmlns="http://www.w3.org/2000/svg" xmlns:svg="http://www.w3.org/2000/svg" id="svg16" width="24" height="24" version="1.1" viewBox="0 0 6.35 6.35"><metadata id="metadata22"/><path id="path2-3" d="m 0.54288932,5.8634655 0.0216288,-3.1820326 c 0.004374,-0.6434621 1.07976685,0.5656492 1.46648175,0.3702337 2.092,-1.0290001 2.0910002,0.2549998 2.6140003,0.2549998 0.3798936,0 0.9085444,-0.2878941 1.2054421,-0.637451 0,0 -0.1470724,0.9299472 -0.055359,1.2432878 0.1443881,0.4933033 0.5524294,1.7995198 -0.2198936,1.8932149 z" style="fill:#e6e6e6;fill-rule:evenodd;stroke:#585a56;stroke-width:.26499999;stroke-linecap:round;stroke-linejoin:round;stroke-opacity:.93000034"/><path id="path2" d="m 2.124,0.39666666 c -0.746,0.013 -1.4,0.33299997 -1.663,1.10999994 -0.26,0.772 0.31,2.165 1.57,1.545 2.092,-1.029 2.091,0.255 2.614,0.255 0.645,0 1.307,-0.45 1.307,-1.025 0,-0.514 0.026,-1.007 -0.262,-1.28999997 C 5.0265133,0.14986427 4.0952013,2.6575339 2.6892013,2.0835339 2.2548727,1.8990646 2.5958766,0.39832256 2.124,0.39666666 Z" style="fill:#e6e6e6;fill-rule:evenodd;stroke:#585a56;stroke-width:.2651125;stroke-linecap:round;stroke-linejoin:round;stroke-opacity:.93000022;stroke-miterlimit:4;stroke-dasharray:none"/><circle id="circle4" cx="1.783" cy="1.183" r=".265" style="fill:#8cbe8c;stroke:#4b4c4b;stroke-width:.26499999;stroke-linecap:round"/><circle id="circle6" cx="4.157" cy="1.987" r=".265" style="fill:#8cbe8c;stroke:#4b4c4b;stroke-width:.26499999;stroke-linecap:round"/><circle id="circle10" cx="4.895" cy="3.043" r=".265" style="fill:#8cbe8c;stroke:#4b4c4b;stroke-width:.26499999;stroke-linecap:round"/><circle id="circle12" cx="1.076" cy="2.209" r=".265" style="fill:#8cbe8c;stroke:#4b4c4b;stroke-width:.26499999;stroke-linecap:round"/><circle id="circle14" cx="5.159" cy="1.456" r=".265" style="fill:#8cbe8c;stroke:#4b4c4b;stroke-width:.26499999;stroke-linecap:round"/><circle id="circle4-6" cx="1.007" cy="3.903" r=".265" style="fill:#8cbe8c;stroke:#4b4c4b;stroke-width:.26499999;stroke-linecap:round"/><circle id="circle4-7" cx="5.233" cy="4.29" r=".265" style="fill:#8cbe8c;stroke:#4b4c4b;stroke-width:.26499999;stroke-linecap:round"/><circle id="circle4-5" cx="2.447" cy="4.313" r=".265" style="fill:#8cbe8c;stroke:#4b4c4b;stroke-width:.26499999;stroke-linecap:round"/><circle id="circle4-3" cx="4.332" cy="5.144" r=".265" style="fill:#8cbe8c;stroke:#4b4c4b;stroke-width:.26499999;stroke-linecap:round"/><circle id="circle4-56" cx="3.266" cy="3.669" r=".265" style="fill:#8cbe8c;stroke:#4b4c4b;stroke-width:.26499999;stroke-linecap:round"/></svg>