<svg xmlns="http://www.w3.org/2000/svg" xmlns:xlink="http://www.w3.org/1999/xlink" width="64" height="64"><defs><g id="a"><rect width="21" height="20.5" x="3" y="24" fill="#d3d7cf" stroke="#000" stroke-linejoin="bevel" stroke-opacity=".599" ry="2.65"/><rect width="17" height="14" x="5" y="26" fill="#6885ae" stroke="#000" stroke-linejoin="round" stroke-opacity=".599" ry="1"/><rect width="21" height="4" x="3" y="45" fill="#d3d7cf" stroke="#000" stroke-linejoin="round" stroke-opacity=".599" ry=".539"/><path fill="#204a87" d="m22 29.9v9.09c0 .554-.446 1-1 1h-15c-.554 0-1-.446-1-1v-3.66c7 .172 13.1-.647 17-5.43z"/><path fill="#a4a9a1" d="m15 46h8v2h-8z"/></g></defs><g fill="#fff" stroke="gray" stroke-linejoin="round"><path d="m23 41h18v2h-18z"/><path d="m34.4 30h2.24v10.5h-2.24z"/><circle cx="35.5" cy="41.8" r="1.72"/></g><use xlink:href="#a"/><use x="25" y="-17" xlink:href="#a"/><use x="37" y="12" xlink:href="#a"/></svg>