<svg xmlns="http://www.w3.org/2000/svg" xmlns:xlink="http://www.w3.org/1999/xlink" width="32" height="32"><linearGradient id="a" x1="5.632" x2="10.632" y1="3.705" y2="15.705" gradientUnits="userSpaceOnUse"><stop offset="0" stop-color="#f1f1f1"/><stop offset="1" stop-color="#d6d6d6"/></linearGradient><path fill="none" stroke="#2b3b4d" d="m10.283011 8.3578359 10.139192.00203v7.8920306"/><g fill-rule="evenodd" stroke="#888a85" stroke-linecap="round" stroke-linejoin="round"><g transform="translate(-.431455 -.143818)"><rect width="13" height="15" x="2.632" y="1.705" fill="url(#a)" rx="1"/><g fill="#eeeeec"><path d="m2.6324644 5.7047943h12.9999996"/><path d="m4.6324644 8.7047943h2"/><path d="m4.6324644 11.704794h2"/><path d="m4.6324644 14.704795h2"/><path d="m9.6324641 8.7047943h3.9999999"/><path d="m9.5703417 11.663069 4.0621223.04172"/><path d="m9.6324641 14.704795h3.9999999"/><path d="m4.7035514 3.7105107 1.928913-.00572"/><path d="m9.6324641 3.7047943h3.9999999"/></g></g><g transform="translate(14.885197 13.80656)"><rect width="13" height="15" x="2.632" y="1.705" fill="url(#a)" rx="1"/><g fill="#eeeeec"><path d="m2.6324644 5.7047943h12.9999996"/><path d="m4.6324644 8.7047943h2"/><path d="m4.6324644 11.704794h2"/><path d="m4.6324644 14.704795h2"/><path d="m9.6324641 8.7047943h3.9999999"/><path d="m9.5703417 11.663069 4.0621223.04172"/><path d="m9.6324641 14.704795h3.9999999"/><path d="m4.7035514 3.7105107 1.928913-.00572"/><path d="m9.6324641 3.7047943h3.9999999"/></g></g></g></svg>