<svg xmlns="http://www.w3.org/2000/svg" xmlns:xlink="http://www.w3.org/1999/xlink" width="256" height="256"><linearGradient id="a"><stop offset="0" stop-color="#f5f5f5"/><stop offset="1" stop-color="#fff"/></linearGradient><linearGradient id="b" x1="190.523" x2="180.141" y1="30.799" y2="41.595" gradientUnits="userSpaceOnUse"><stop offset="0" stop-color="#afafaf"/><stop offset="1" stop-color="#fff"/></linearGradient><linearGradient id="c" x1="120.707" x2="123.01" y1="244.554" y2="121.558" gradientUnits="userSpaceOnUse" xlink:href="#a"/><linearGradient x1="-19.832" x2="384.75" y1="221.757" y2="222.768" gradientUnits="userSpaceOnUse" xlink:href="#a"/><filter id="d" color-interpolation-filters="sRGB"><feFlood flood-opacity=".851" result="flood"/><feComposite in="flood" in2="SourceGraphic" operator="in" result="composite1"/><feGaussianBlur result="blur" stdDeviation="4"/><feOffset dx="1.8" dy="1.8" result="offset"/><feComposite in="SourceGraphic" in2="offset" operator="over" result="composite2"/></filter><filter id="e" color-interpolation-filters="sRGB"><feFlood flood-opacity=".775" result="flood"/><feComposite in="flood" in2="SourceGraphic" operator="in" result="composite1"/><feGaussianBlur result="blur" stdDeviation="4"/><feOffset dx="1.8" dy="1.8" result="offset"/><feComposite in="SourceGraphic" in2="offset" operator="over" result="composite2"/></filter><filter id="f" color-interpolation-filters="sRGB"><feFlood flood-opacity=".419" result="flood"/><feComposite in="flood" in2="SourceGraphic" operator="in" result="composite1"/><feGaussianBlur result="blur" stdDeviation="1.8"/><feOffset dx="3" dy="3" result="offset"/><feComposite in="SourceGraphic" in2="offset" operator="over" result="composite2"/></filter><linearGradient id="g" x1="61.441" x2="63.125" y1="161.203" y2="273.628" gradientUnits="userSpaceOnUse"><stop offset="0" stop-color="#129300"/><stop offset="1" stop-color="#e4f363"/></linearGradient><filter id="h" color-interpolation-filters="sRGB"><feFlood flood-opacity=".5" result="flood"/><feComposite in="flood" in2="SourceGraphic" operator="in" result="composite1"/><feGaussianBlur result="blur" stdDeviation="1.3"/><feOffset dx="1.1" dy="1.1" result="offset"/><feComposite in="SourceGraphic" in2="offset" operator="over" result="composite2"/></filter><path fill="url(#c)" d="m34.837365 5.00045h131.100135l53.06463 54.048418-.15712 187.915102h-184.007645z" filter="url(#d)"/><path fill="url(#b)" d="m219.32937 59.651599c.12627 0-7.3236-6.060915-11.49048-8.207489-4.16688-2.146575-8.94112-3.519572-13.63706-3.535535-20.02578-.06808-20.07678.126269-20.07678.126269s-.39604.58032-.12627-24.243661c.0311-2.86224-1.51524-6.944799-2.65166-9.47018-2.24321-4.3554815-5.80837-9.8489872-5.80837-9.8489872" filter="url(#e)"/><g fill="none" stroke-linecap="round"><path stroke="#c2c2c2" stroke-linejoin="round" stroke-miterlimit="0" d="m165.55869 4.7479137 53.82226 54.9323013"/><path stroke="#878787" stroke-linejoin="round" stroke-miterlimit="0" stroke-width="2" d="m219.38095 59.680215.0323 187.851965h-184.954662"/><path stroke="#b6b6b6" stroke-linejoin="round" stroke-miterlimit="0" stroke-width="2" d="m34.458588 247.53218-.000001-242.9105354h131.100133"/><path stroke="#878787" stroke-width="2" d="m219.32937 59.651603c.12627 0-7.3236-6.060915-11.49048-8.207489-4.16688-2.146575-8.94112-3.519572-13.63706-3.535535-20.02578-.06808-20.07678.126269-20.07678.126269" visibility="hidden"/><path stroke="#b6b6b6" stroke-width="2" d="m174.12505 48.034848s-.39604.58032-.12627-24.243661c.0311-2.86224-1.51524-6.944799-2.65166-9.47018-2.24321-4.3554813-5.80837-9.848987-5.80837-9.848987" visibility="hidden"/></g><path fill="url(#g)" stroke="#060" stroke-width="2.3" d="m17.142857 168.14285h105v54.285713h-105z" filter="url(#f)" transform="matrix(1.3025271 0 0 .86324706 -5.165627 -125.56827)"/><text x="36.569" y="57.505" fill="#fff" font-family="Sans" font-size="40" letter-spacing="0" word-spacing="0"><tspan x="36.569" y="57.505" fill="#fff" font-weight="bold">DEM</tspan></text><g filter="url(#h)" transform="matrix(5.6719552 0 0 5.6719552 59.720837 43.06087)"><path fill="#6e97c4" d="m7.9999986 7.9999995h7.999999v7.999999h-7.999999z"/><path fill="#2b3b4d" d="m16.000002 7.9999995h7.999999v7.999999h-7.999999z"/><path fill="#2b3b4d" d="m7.9999986 16h7.999999v7.999999h-7.999999z"/><path fill="#6d97c4" d="m16.000002 16h7.999999v7.999999h-7.999999z"/><path fill="#2d3e4d" d="m-.00000048 7.9999995h7.999999v7.999999h-7.999999z"/><path fill="#6d97c4" d="m-.00000048 16h7.999999v7.999999h-7.999999z"/><path fill="#6d97c4" d="m7.9999986 24.000002h7.999999v7.999999h-7.999999z"/><path fill="#2b3b4d" d="m-.00000048 24.000002h7.999999v7.999999h-7.999999z"/><path fill="none" d="m-.00000048 7.9999995h23.999998v23.999998h-23.999998z"/></g></svg>