<svg xmlns="http://www.w3.org/2000/svg" xmlns:xlink="http://www.w3.org/1999/xlink" width="256" height="256" enable-background="new"><linearGradient id="a"><stop offset="0" stop-color="#f5f5f5"/><stop offset="1" stop-color="#fff"/></linearGradient><filter id="b" color-interpolation-filters="sRGB"><feFlood flood-opacity=".851" result="flood"/><feComposite in="flood" in2="SourceGraphic" operator="in" result="composite1"/><feGaussianBlur result="blur" stdDeviation="4"/><feOffset dx="1.8" dy="1.8" result="offset"/><feComposite in="SourceGraphic" in2="offset" operator="over" result="composite2"/></filter><filter id="c" color-interpolation-filters="sRGB"><feFlood flood-opacity=".775" result="flood"/><feComposite in="flood" in2="SourceGraphic" operator="in" result="composite1"/><feGaussianBlur result="blur" stdDeviation="4"/><feOffset dx="1.8" dy="1.8" result="offset"/><feComposite in="SourceGraphic" in2="offset" operator="over" result="composite2"/></filter><filter id="d" color-interpolation-filters="sRGB"><feFlood flood-opacity=".419" result="flood"/><feComposite in="flood" in2="SourceGraphic" operator="in" result="composite1"/><feGaussianBlur result="blur" stdDeviation="1.8"/><feOffset dx="3" dy="3" result="offset"/><feComposite in="SourceGraphic" in2="offset" operator="over" result="composite2"/></filter><filter id="e" color-interpolation-filters="sRGB"><feFlood flood-opacity=".5" result="flood"/><feComposite in="flood" in2="SourceGraphic" operator="in" result="composite1"/><feGaussianBlur result="blur" stdDeviation="2"/><feOffset dx="1.5" dy="1.5" result="offset"/><feComposite in="SourceGraphic" in2="offset" operator="over" result="composite2"/></filter><clipPath id="f"><path d="m38.250011 304.54572h170.3934v132.28729h-170.3934z"/></clipPath><filter id="g" color-interpolation-filters="sRGB"><feBlend in2="BackgroundImage" mode="darken"/></filter><filter id="h" color-interpolation-filters="sRGB"><feBlend in2="BackgroundImage" mode="darken"/></filter><filter id="i" color-interpolation-filters="sRGB"><feBlend in2="BackgroundImage" mode="darken"/></filter><filter id="j" color-interpolation-filters="sRGB"><feBlend in2="BackgroundImage" mode="darken"/></filter><filter id="k" color-interpolation-filters="sRGB"><feBlend in2="BackgroundImage" mode="darken"/></filter><filter id="l" color-interpolation-filters="sRGB"><feBlend in2="BackgroundImage" mode="darken"/></filter><filter id="m" color-interpolation-filters="sRGB"><feBlend in2="BackgroundImage" mode="darken"/></filter><filter id="n" color-interpolation-filters="sRGB"><feBlend in2="BackgroundImage" mode="darken"/></filter><filter id="o" color-interpolation-filters="sRGB"><feBlend in2="BackgroundImage" mode="darken"/></filter><filter id="p" color-interpolation-filters="sRGB"><feBlend in2="BackgroundImage" mode="darken"/></filter><filter id="q" color-interpolation-filters="sRGB"><feBlend in2="BackgroundImage" mode="darken"/></filter><linearGradient id="r" x1="120.707" x2="123.01" y1="244.554" y2="121.558" gradientUnits="userSpaceOnUse" xlink:href="#a"/><linearGradient x1="-19.832" x2="384.75" y1="221.757" y2="222.768" gradientUnits="userSpaceOnUse" xlink:href="#a"/><linearGradient id="s" x1="190.523" x2="180.141" y1="30.799" y2="41.595" gradientUnits="userSpaceOnUse"><stop offset="0" stop-color="#afafaf"/><stop offset="1" stop-color="#fff"/></linearGradient><linearGradient id="t" x1="61.441" x2="63.125" y1="161.203" y2="273.628" gradientUnits="userSpaceOnUse"><stop offset="0" stop-color="#129300"/><stop offset="1" stop-color="#e4f363"/></linearGradient><path fill="url(#r)" d="m34.837365 5.00045h131.100135l53.06463 54.048418-.15712 187.915102h-184.007645z" filter="url(#b)"/><path fill="url(#s)" d="m219.32937 59.651599c.12627 0-7.3236-6.060915-11.49048-8.207489-4.16688-2.146575-8.94112-3.519572-13.63706-3.535535-20.02578-.06808-20.07678.126269-20.07678.126269s-.39604.58032-.12627-24.243661c.0311-2.86224-1.51524-6.944799-2.65166-9.47018-2.24321-4.3554815-5.80837-9.8489872-5.80837-9.8489872" filter="url(#c)"/><g fill="none" stroke-linecap="round"><path stroke="#c2c2c2" stroke-linejoin="round" stroke-miterlimit="0" d="m165.55869 4.7479137 53.82226 54.9323013"/><path stroke="#878787" stroke-linejoin="round" stroke-miterlimit="0" stroke-width="2" d="m219.38095 59.680215.0323 187.851965h-184.954662"/><path stroke="#b6b6b6" stroke-linejoin="round" stroke-miterlimit="0" stroke-width="2" d="m34.458588 247.53218-.000001-242.9105354h131.100133"/><path stroke="#878787" stroke-width="2" d="m219.32937 59.651603c.12627 0-7.3236-6.060915-11.49048-8.207489-4.16688-2.146575-8.94112-3.519572-13.63706-3.535535-20.02578-.06808-20.07678.126269-20.07678.126269" visibility="hidden"/><path stroke="#b6b6b6" stroke-width="2" d="m174.12505 48.034848s-.39604.58032-.12627-24.243661c.0311-2.86224-1.51524-6.944799-2.65166-9.47018-2.24321-4.3554813-5.80837-9.848987-5.80837-9.848987" visibility="hidden"/></g><path fill="url(#t)" stroke="#060" stroke-width="2.3" d="m17.142857 168.14285h105v54.285713h-105z" filter="url(#d)" transform="matrix(1.3025271 0 0 .86324706 -5.165627 -125.56827)"/><g filter="url(#h)" transform="translate(-1777.3481 -667.65362)"><path fill="#fff" stroke="#b3b3b3" d="m1825.5225 756.45044h157.14285v145.71428h-157.14285z" filter="url(#e)"/><g stroke="#b0b0de" clip-path="url(#f)" filter="url(#e)" transform="matrix(.79868116 0 0 .79868116 1804.9941 542.84139)"><path fill="#fff" stroke-width="6.3" d="m17.67767 270.14215h218.19295v181.82745h-218.19295z"/><g fill="none"><path stroke-width="15.172" d="m7.7522471 280.92484 200.3154129 166.59427"/><path stroke-width="10" d="m67.680221 331.25636-70.7106786 86.36805"/><path stroke-width="5" d="m157.5838 406.51273 106.57109-134.85537"/><path stroke-width="10" d="m100.0051 358.53048 81.31728-100.0051"/><path stroke-width="5" d="m150.00765 297.41625 56.56855 45.96195 19.19289 103.03555"/><path stroke-width="5" d="m118.18785 375.70308-112.632011 31.31473"/></g></g><path fill="none" stroke="#b0b0de" stroke-width="2" d="m1835.7703 786.77454h136.01978v105.5853h-136.01978z" filter="url(#g)"/><path fill="#b0b0de" d="m1834.6 766.61176h85.862915v9.0913696h-85.862915z"/><g stroke="#b0b0de"><path fill="#e5e5f4" stroke-width="2" d="m1952.4766 762.53284h18.39209v16.876862h-18.39209z"/><path fill="#fff" stroke-width="2.78" d="m1934.0642 824.29144h29.963013v61.413906h-29.963013z"/><path fill="none" stroke-width="3" d="m1865.1204 906.80501h42.9946" transform="translate(-21.256908 -25.032652)"/><path fill="none" stroke-width="2" d="m1773.7526 889.66417h42.9946" filter="url(#h)" transform="matrix(.51254697 0 0 3.7317446 1028.5169 -2462.7864)"/><path fill="none" stroke-width="2" d="m1773.7526 889.66417h42.9946" filter="url(#i)" transform="matrix(.51254697 0 0 3.7317446 1028.5169 -2457.4515)"/><path fill="none" stroke-width="2" d="m1773.7526 889.66417h42.9946" filter="url(#j)" transform="matrix(.51254697 0 0 3.7317446 1028.5169 -2452.1167)"/><path fill="none" stroke-width="2" d="m1773.7526 889.66417h42.9946" filter="url(#k)" transform="matrix(.51254697 0 0 3.7317446 1028.5169 -2446.7818)"/><path fill="none" stroke-width="2" d="m1773.7526 889.66417h42.9946" filter="url(#l)" transform="matrix(.51254697 0 0 3.7317446 1028.5169 -2441.447)"/><path fill="none" stroke-width="2" d="m1773.7526 889.66417h42.9946" filter="url(#m)" transform="matrix(.51254697 0 0 3.7317446 1028.6432 -2489.4923)"/><path fill="none" stroke-width="2" d="m1773.7526 889.66417h42.9946" filter="url(#n)" transform="matrix(.51254697 0 0 3.7317446 1028.6432 -2484.1574)"/><path fill="none" stroke-width="2" d="m1773.7526 889.66417h42.9946" filter="url(#o)" transform="matrix(.51254697 0 0 3.7317446 1028.6432 -2478.8226)"/><path fill="none" stroke-width="2" d="m1773.7526 889.66417h42.9946" filter="url(#p)" transform="matrix(.51254697 0 0 3.7317446 1028.6432 -2473.4877)"/><path fill="none" stroke-width="2" d="m1773.7526 889.66417h42.9946" filter="url(#q)" transform="matrix(.51254697 0 0 3.7317446 1028.6432 -2468.1529)"/></g></g><g fill="#fff"><path d="m57.928558 56.934124h-.585937c-4.8047-.000001-8.541675-1.328124-11.210938-3.984375-2.669274-2.656244-4.003908-6.354157-4.003906-11.09375-.000002-4.726543 1.328122-8.430967 3.984375-11.113281 2.669262-2.682264 6.341134-4.023408 11.015625-4.023438 4.726541.00003 8.404923 1.328154 11.035156 3.984375 2.643199 2.656273 3.964812 6.373717 3.964844 11.152344-.000032 3.281261-.703156 6.106779-2.109375 8.476562-1.393258 2.369796-3.404974 4.153648-6.035156 5.351563l5.878906 6.5625h-7.167969zm-.800781-24.765625c-2.291681.000024-4.069023.846378-5.332031 2.539062-1.263031 1.692729-1.894541 4.075539-1.894531 7.148438-.00001 3.125011.618479 5.520842 1.855468 7.1875 1.236967 1.653652 3.027329 2.480474 5.371094 2.480469 2.304668.000005 4.088521-.846349 5.351563-2.539063 1.262997-1.692699 1.894507-4.068999 1.894531-7.128906-.000024-3.072899-.631534-5.455709-1.894531-7.148438-1.263042-1.692684-3.046895-2.539038-5.351563-2.539062"/><path d="m77.79184 27.246624h12.480468c3.710918.000029 6.555967.826851 8.535157 2.480469 1.992165 1.64065 2.988255 3.984397 2.988285 7.03125-.00003 3.059912-.99612 5.416681-2.988285 7.070312-1.97919 1.640636-4.824239 2.460948-8.535157 2.460938h-4.960937v10.117187h-7.519531zm7.519531 5.449219v8.144531h4.160156c1.458317.000016 2.584618-.351547 3.378906-1.054688.794252-.716128 1.191387-1.725242 1.191407-3.027343-.00002-1.302063-.397155-2.304666-1.191407-3.007813-.794288-.703101-1.920589-1.054664-3.378906-1.054687z"/><path d="m103.61215 27.246624h26.875v5.683594h-9.66797v23.476562h-7.51953v-23.476562h-9.6875z"/></g></svg>