<svg xmlns="http://www.w3.org/2000/svg" xmlns:xlink="http://www.w3.org/1999/xlink" width="1200" height="600" viewBox="0 0 12 6"><path fill="#ed1c24" d="m0 0h12v6h-12z"/><path fill="#005da4" d="m0 0h12v4h-12z"/><path fill="#fff" d="m0 0h12v2h-12z"/><svg width="12" height="15.459" transform="matrix(.12937 0 0 .12937 2.2238 1)" viewBox="-120 -190.223 240 309.188"><path fill="#005da4" d="m110.26-19.478 9.74-143.75a280.22 280.22 0 0 0 -240 0l9.74 143.75a155.61 155.61 0 0 0 110.26 138.45 155.61 155.61 0 0 0 110.26-138.45"/><path fill="#fff" d="m-90 0a138.29 138.29 0 0 0 90 100.77 138.29 138.29 0 0 0 90-100.77l-45-60-18 24-27-54-27 54-18-24z"/><g id="a" fill="#005da4"><path d="m-17.196-2.1962a6 6 0 0 0 8.1962 2.1962 6 6 0 0 1 6 0 6 6 0 0 0 6 0 6 6 0 0 1 6 0 6 6 0 0 0 8.1962-2.1962v1.732a6 6 0 0 1 -8.1962 2.1962 6 6 0 0 0 -6 0 6 6 0 0 1 -6 0 6 6 0 0 0 -6 0 6 6 0 0 1 -8.1962-2.1962z" transform="matrix(5 0 0 5 0 25.981)"/></g><use transform="translate(0 17.321)" xlink:href="#a"/><g id="b"><path fill="#fd0" stroke-width=".2" d="m0-5 1 3.2679 3.3301-.7679-2.3301 2.5 2.3301 2.5-3.3301-.7679-1 3.2679-1-3.2679-3.3301.7679 2.3301-2.5-2.3301-2.5 3.3301.7679z" transform="matrix(2.25 0 0 2.25 0 -120)"/></g><use transform="translate(-33.75 -45)" xlink:href="#b"/><use transform="translate(33.75 -45)" xlink:href="#b"/><path fill="#ed1c24" d="m-111.58-167.05 9.96 146.99a146.95 146.95 0 0 0 101.62 129.95 146.95 146.95 0 0 0 101.62-129.95l9.96-146.99a280.22 280.22 0 0 0 8.42 3.82l-9.74 143.75a155.61 155.61 0 0 1 -110.26 138.45 155.61 155.61 0 0 1 -110.26-138.45l-9.74-143.75a280.22 280.22 0 0 0 8.42-3.82"/></svg></svg>