<svg xmlns="http://www.w3.org/2000/svg" width="580" height="580" enable-background="new 0 0 580 580" viewBox="0 0 580 580"><path fill="param(fill)" d="m373.979 195.932h-168.92c-5.561 0-10.068 4.508-10.068 10.068v168.921c0 5.561 4.507 10.068 10.068 10.068h168.92c5.561 0 10.068-4.508 10.068-10.068v-168.921c.001-5.561-4.507-10.068-10.068-10.068z" opacity=".5"/><path fill="none" stroke="param(outline)" stroke-width="param(outline-width)" d="m373.979 195.932h-168.92c-5.561 0-10.068 4.508-10.068 10.068v168.921c0 5.561 4.507 10.068 10.068 10.068h168.92c5.561 0 10.068-4.508 10.068-10.068v-168.921c.001-5.561-4.507-10.068-10.068-10.068z"/></svg>