<svg xmlns="http://www.w3.org/2000/svg" xmlns:svg="http://www.w3.org/2000/svg" xmlns:xlink="http://www.w3.org/1999/xlink" id="svg2" width="580" height="580" x="0" y="0" enable-background="new 0 0 580 580" version="1.1" viewBox="0 0 580 580" xml:space="preserve"><g id="layer3" display="none" transform="matrix(48.14969,0,0,48.14969,-536.27327,-33.306752)"><rect id="rect4134" width="10" height="10" x="1" y="1" fill="none" stroke="#757575" stroke-width=".1" display="inline"/><rect id="rect4136" width="8" height="8" x="2" y="2" fill="none" stroke="#757575" stroke-width=".1" display="inline"/></g><path fill="param(fill) #000" fill-opacity="255" stroke="param(outline) #FFF" stroke-opacity="255" stroke-width="param(outline-width) 0" d="M291.688,37.219c-148.497,0-269.03,114.776-269.03,256.188	c0,141.406,120.529,256.156,269.03,256.156c148.503,0,269.031-114.75,269.031-256.156	C560.719,151.995,440.185,37.219,291.688,37.219z M345.219,108.563L411.25,83.25l72.25,59.25l-20.344,74.094l-66.031,9.875	l-61.781-61.781L345.219,108.563z M190.093,78.313L271.5,58.5l56.125,46.406l-14.844,59.219l-62.344,28.969l-78.875-20.906	l-11.719-48.219L190.093,78.313z M118.406,119.031c3.851-4.951,7.878-9.743,13.563-13.594c5.684-4.401,11.365-7.886,19.25-11.187	c-2.567,10.086-5.147,20.195-7.531,30.281l-36.313,9.344C110.309,128.557,114.005,123.616,118.406,119.031z M70.719,399.407	c-5.868,2.379-11.382-3.855-17.25-16.688c-6.418-13.938-15.035-42.001-17.969-62.906c-2.75-21.094-2.57-41.623,1.281-62.344	l38.344,12.281l20.344,85.094L70.719,399.407z M95.468,259.845l67.313-68.376l72.781,20.344l18.531,78.844l-75.906,58.688	l-66.031-1.844L95.468,259.845z M353.501,531.812c-15.221,2.212-30.647,3.853-46.969,4.22c-16.871,0.367-34.835-0.016-51.156-1.845	c-17.421-2.566-33.567-7.159-47.688-11.75c-14.12-4.945-24.933-10.434-34.469-17.219l-1.281-24.75l48.781-37.062l109.313,19.28	l31.344,48.031L353.501,531.812z M332.219,449.656l-103.063-21.625l-33.938-67.875l73.532-54.281l82.719,21.656l26.406,62.156	L332.219,449.656z M394,377.031l-23.469-53.719l39.438-75.938l62.345-11.186l37.03,62.375l-51.155,84.531L394,377.031z M522.374,396.656c-6.229,12.465-11.93,21.287-18.531,27.155l-29.688-34.499l51.875-87.656l18.001-9.906	c0.184,21.271-1.484,39.246-4.97,57.406C534.844,367.123,528.604,383.453,522.374,396.656z"/></svg>