<svg xmlns="http://www.w3.org/2000/svg" width="32" height="32"><g><g fill="#729fcf" stroke-linejoin="round"><path stroke="#729fcf" stroke-linecap="square" d="m6.5 7.5h19v15h-19z"/><path stroke="#204a87" stroke-linecap="square" d="m25.5 7.5a9.5 2 0 1 1 -19 0 9.5 2 0 1 1 19 0z"/><path fill-opacity=".784" stroke="#204a87" stroke-linecap="round" d="m6.5 7.5v15"/><path fill-opacity=".784" stroke="#204a87" stroke-linecap="round" d="m25.5 7.5v15"/><path stroke="#204a87" stroke-linecap="round" d="m6.5 12.5c6 3 13 3 19 0"/><path stroke="#204a87" stroke-linecap="round" d="m6.5 17.5c6 3 13 3 19 0"/><path stroke="#204a87" stroke-linecap="round" d="m6.5 22.5c6 3 13 3 19 0"/></g><path fill="#fcffff" fill-rule="evenodd" d="m6.0695622 7.165215s-.047827 13.573917-.047827 15.573917c3.5251728 2.182423 5.6326868 2.009567 5.6326868 2.009567l-.039334-15.6466178c-1.139437-.98081.004754-2.9024279 5.837086-3.9846922-2.042525-.125348-10.4418929-.477285-11.3826118 2.047826z" opacity=".2"/></g><g><g transform="translate(0 -9)"><rect width="25" height="8" x="3.5" y="21.5" fill="#eeeeec" fill-opacity=".784" stroke="#555753" stroke-linecap="square" stroke-linejoin="round" ry=".857"/><text x="7.492" y="31.945" fill="#2e3436" font-family="Monospace" font-size="14" letter-spacing="0" word-spacing="0"><tspan x="7.492" y="31.945" fill="#2e3436" font-family="Georgia" font-size="12">***</tspan></text></g></g></svg>