<svg xmlns="http://www.w3.org/2000/svg" xmlns:xlink="http://www.w3.org/1999/xlink" width="500" height="500"><clipPath id="a"><path d="m0 0h495v495h-495z"/></clipPath><path fill="#fff" d="m0 0h500v500h-500z"/><g fill="none" stroke="#000" stroke-width=".9" clip-path="url(#a)"><path fill="#ff0" stroke="none" d="m255 78v4l-2 3-2 2-3 2-4 1h-3l-3-1-3-2-2-3-2-3v-4-3l2-3 2-3 3-2 3-1h4l3 2 3 1 2 3 2 3z"/><path fill="none" stroke="#ff0" stroke-width="15" d="m255 78v4l-2 3-2 2-3 2-4 1h-3l-3-1-3-2-2-3-2-3v-4-3l2-3 2-3 3-2 3-1h4l3 2 3 1 2 3 2 3z"/><path fill="#ff0" stroke="none" d="m367 375v1l-1 4-2 3-2 2-3 2-3 1h-4l-3-2-3-2-2-2-1-3-1-4 1-3 1-3 3-3 3-2 3-1h3l4 1 3 2 2 3 1 3z"/><path fill="none" stroke="#ff0" stroke-width="15" d="m367 375v1l-1 4-2 3-2 2-3 2-3 1h-4l-3-2-3-2-2-2-1-3-1-4 1-3 1-3 3-3 3-2 3-1h3l4 1 3 2 2 3 1 3z"/><path fill="#ff0" stroke="none" d="m105 272v1 3l-2 3-2 3-3 1-4 1h-3l-3-1-3-2-2-3-2-3v-3l1-4 1-3 2-2 3-2 4-1h3l3 1 3 2 3 2 1 4z"/><g fill="none" stroke-width="15"><path stroke="#ff0" d="m105 272v1 3l-2 3-2 3-3 1-4 1h-3l-3-1-3-2-2-3-2-3v-3l1-4 1-3 2-2 3-2 4-1h3l3 1 3 2 3 2 1 4z"/><path stroke="#000" d="m257 224-125-112"/><path stroke="#000" d="m257 224 132-4"/><path stroke="#000" d="m257 224-43 157"/><path stroke="#000" d="m214 381-121-109"/><path stroke="#000" d="m93 272 39-160"/><path stroke="#000" d="m132 112-105-103"/><path stroke="#000" d="m132 112 111-34"/><path stroke="#000" d="m243 78 109 25"/><path stroke="#000" d="m352 103 37 117"/><path stroke="#000" d="m352 103 113-86"/><path stroke="#000" d="m243 78-6-64"/><path stroke="#000" d="m389 220-34 155"/><path stroke="#000" d="m355 375-141 6"/><path stroke="#000" d="m355 375 87 108"/><path stroke="#000" d="m214 381-92 87"/><path stroke="#000" d="m93 272-63 34"/><path stroke="#000" d="m389 220 82-3"/><path stroke="red" d="m243 78 109 25"/><path stroke="red" d="m352 103 113-86"/><path stroke="red" d="m243 78-6-64"/><path stroke="red" d="m132 112 111-34"/><path stroke="red" d="m132 112-105-103"/><path stroke="red" d="m352 103 26 81"/><path stroke="red" d="m126 135 6-23"/><path stroke="red" d="m257 224h3"/><path stroke="red" d="m257 224-125-112"/><path stroke="red" d="m257 224-2 9"/><path stroke="#00f" d="m389 220 82-3"/><path stroke="#00f" d="m378 184 11 36"/><path stroke="#00f" d="m389 220-34 155"/><path stroke="#00f" d="m355 375 87 108"/><path stroke="#00f" d="m355 375-141 6"/><path stroke="#00f" d="m214 381-8-7"/><path stroke="#00f" d="m214 381-92 87"/><path stroke="#00f" d="m260 224 129-4"/><path stroke="#00f" d="m255 233-41 148"/><path stroke="#0f0" d="m206 374-113-102"/><path stroke="#0f0" d="m93 272 33-137"/><path stroke="#0f0" d="m93 272-63 34"/></g></g></svg>