<svg xmlns="http://www.w3.org/2000/svg" xmlns:xlink="http://www.w3.org/1999/xlink" width="500" height="500"><clipPath id="a"><path d="m0 0h495v495h-495z"/></clipPath><path fill="#fff" d="m0 0h500v500h-500z"/><g fill="none" stroke="#000" stroke-width="15" clip-path="url(#a)"><g stroke="#000"><path d="m257 224-125-112"/><path d="m257 224 132-4"/><path d="m257 224-43 157"/><path d="m214 381-121-109"/><path d="m93 272 39-160"/><path d="m132 112-105-103"/><path d="m132 112 111-34"/><path d="m243 78 109 25"/><path d="m352 103 37 117"/><path d="m352 103 113-86"/><path d="m243 78-6-64"/><path d="m389 220-34 155"/><path d="m355 375-141 6"/><path d="m355 375 87 108"/><path d="m214 381-92 87"/><path d="m93 272-63 34"/><path d="m389 220 82-3"/></g><path stroke="red" d="m243 78 72 16"/><path stroke="red" d="m243 78-6-64"/><path stroke="red" d="m173 99 70-21"/><path stroke="red" d="m371 304-16 71"/><path stroke="red" d="m355 375 46 57"/><path stroke="red" d="m355 375-74 3"/><path stroke="red" d="m148 321-55-49"/><path stroke="red" d="m93 272 17-71"/><path stroke="red" d="m93 272-63 34"/><path stroke="#0f0" d="m315 94 37 9"/><path stroke="#0f0" d="m352 103 28-22"/><path stroke="#0f0" d="m132 112 41-13"/><path stroke="#0f0" d="m132 112-22-21"/><path stroke="#0f0" d="m352 103 11 33"/><path stroke="#0f0" d="m387 232-16 72"/><path stroke="#0f0" d="m401 432 41 51"/><path stroke="#0f0" d="m281 378-67 3"/><path stroke="#0f0" d="m214 381-5-4"/><path stroke="#0f0" d="m202 371-54-50"/><path stroke="#0f0" d="m110 201 22-89"/><path stroke="#0f0" d="m214 381-5 4"/><path stroke="#0f0" d="m154 132-22-20"/><path stroke="#0f0" d="m215 375-1 6"/><path stroke="#00f" d="m380 81 85-64"/><path stroke="#00f" d="m110 91-83-82"/><path stroke="#00f" d="m389 220 82-3"/><path stroke="#00f" d="m363 136 26 84"/><path stroke="#00f" d="m389 220-2 12"/><path stroke="#00f" d="m209 377-7-6"/><path stroke="#00f" d="m209 385-87 83"/><path stroke="#00f" d="m257 224 132-4"/><path stroke="#00f" d="m257 224-103-92"/><path stroke="#00f" d="m257 224-42 151"/></g></svg>